<svg xmlns="http://www.w3.org/2000/svg" width="45" height="45" viewBox="0 0 45 45"><g transform="translate(-60 -2098)"><g transform="translate(60 2098)" fill="none" stroke="#fff" stroke-width="1"><circle cx="22.5" cy="22.5" r="22.5" stroke="none"/><circle cx="22.5" cy="22.5" r="22" fill="none"/></g><path d="M25.521,3a12.149,12.149,0,0,1-3.5,1.705A4.993,4.993,0,0,0,13.26,8.05V9.165A11.881,11.881,0,0,1,3.229,4.116S-1.229,14.147,8.8,18.605A12.974,12.974,0,0,1,1,20.835c10.031,5.573,22.292,0,22.292-12.818a5.016,5.016,0,0,0-.089-.925A8.6,8.6,0,0,0,25.521,3Z" transform="translate(69 2108.01)" fill="none" stroke="#fff" stroke-linecap="round" stroke-linejoin="round" stroke-width="1"/></g></svg>