<?xml version="1.0" standalone="no"?>
<!DOCTYPE svg PUBLIC "-//W3C//DTD SVG 20010904//EN"
 "http://www.w3.org/TR/2001/REC-SVG-20010904/DTD/svg10.dtd">
<svg version="1.0" xmlns="http://www.w3.org/2000/svg"
 width="83.000000pt" height="83.000000pt" viewBox="0 0 83.000000 83.000000"
 preserveAspectRatio="xMidYMid meet">
<metadata>
Created by potrace 1.11, written by Peter Selinger 2001-2013
</metadata>
<g transform="translate(0.000000,83.000000) scale(0.100000,-0.100000)"
fill="#000000" stroke="none">
<path d="M0 748 c0 -21 4 -23 51 -24 28 0 54 -5 57 -11 4 -6 7 -122 6 -257 0
-135 3 -246 8 -247 4 0 24 -1 43 -1 19 0 42 1 50 1 13 1 15 36 15 251 0 248 0
251 22 259 30 11 137 6 181 -8 50 -17 100 -79 121 -148 19 -65 26 -205 15
-291 -4 -31 -7 -58 -6 -59 6 -5 98 -9 106 -4 17 12 37 126 35 200 -5 157 -69
269 -194 337 -31 17 -62 19 -272 22 l-238 4 0 -24z"/>
<path d="M460 160 l-345 -5 -3 -42 -3 -43 355 0 c278 0 356 3 357 13 0 6 2 22
3 35 5 47 3 47 -364 42z"/>
</g>
</svg>
